Coordinates
nRows=6
nColumns=38

# SIMM Motion File Header:
name Coordinates
datacolumns 38
datarows 6
otherdata 1
range 0.98400000000000010000 0.98900000000000010000

Units are S.I. units (second, meters, Newtons, ...)
Angles are in degrees.

endheader
time	pelvis_tilt	pelvis_list	pelvis_rotation	pelvis_tx	pelvis_ty	pelvis_tz	hip_flexion_r	hip_adduction_r	hip_rotation_r	knee_angle_r	ankle_angle_r	subtalar_angle_r	mtp_angle_r	hip_flexion_l	hip_adduction_l	hip_rotation_l	knee_angle_l	ankle_angle_l	subtalar_angle_l	mtp_angle_l	lumbar_extension	lumbar_bending	lumbar_rotation	arm_flex_r	arm_add_r	arm_rot_r	elbow_flex_r	pro_sup_r	wrist_flex_r	wrist_dev_r	arm_flex_l	arm_add_l	arm_rot_l	elbow_flex_l	pro_sup_l	wrist_flex_l	wrist_dev_l
      0.98400000000000010000	     -2.22829492255351940000	     -1.98951990146239610000	     -1.86984190136780650000	      0.77368956516853471000	      0.98732479604865042000	     -0.44827777561310739000	     10.49710954940474600000	      4.42261534676621170000	     -5.75305675818345290000	    -35.49780010303054900000	     14.44230637022386800000	      0.00000000000003321572	      0.00000000000003732843	     24.21091318261068200000	     -3.70806890261133940000	     -1.25248187673567310000	    -78.45058504665713900000	     -5.43376052492782160000	     -0.00000000000001702244	     -0.00000000000000479132	     -7.58551921309485080000	      6.79914590095869540000	     -1.25701563947977870000	     -9.99711889874331480000	    -20.45500520476001300000	      5.59546995247824870000	    101.49951777255380000000	     76.36069358001883200000	      0.00000000000000244067	     -0.00000000000000485028	    -22.63010633159584000000	    -35.46007182098532700000	     23.08122891771077800000	    104.04301764798475000000	     69.94058740465898400000	      0.00000000000000579929	     -0.00000000000000205885
      0.98500000000000010000	     -2.25462965132539360000	     -1.92062507438918200000	     -1.87870965797000040000	      0.77362225899502701000	      0.98757444373257020000	     -0.44823715072181103000	     10.33665297487369000000	      4.35965584337530120000	     -5.71742850133260210000	    -35.37946654162228600000	     14.36231682873976500000	      0.00000000000003369163	      0.00000000000003807641	     24.35434591851860400000	     -3.62439854678892990000	     -1.26260732722195820000	    -78.27793793825503600000	     -5.34091527461110350000	     -0.00000000000001720936	     -0.00000000000000467011	     -7.55857892268558820000	      6.73020899886857200000	     -1.13538191812032220000	     -9.91240360303655700000	    -20.41981592416325200000	      5.59267050885687040000	    101.61910212404904000000	     76.44254222868201500000	      0.00000000000000255680	     -0.00000000000000477775	    -22.79106421909476800000	    -35.54613292218967800000	     23.08953174639675900000	    104.14228454634828000000	     69.76915120206865600000	      0.00000000000000588021	     -0.00000000000000205390
      0.98600000000000010000	     -2.28163009958128170000	     -1.85102545545252630000	     -1.88725676166178120000	      0.77355914692529770000	      0.98783128840938350000	     -0.44819792534377323000	     10.17576839957699700000	      4.29591254402742350000	     -5.68106427988234850000	    -35.25918588778382900000	     14.27869081050613400000	      0.00000000000003415073	      0.00000000000003881774	     24.49649818532294500000	     -3.54047388626716050000	     -1.27358563189090870000	    -78.10049068271672500000	     -5.24990208192008280000	     -0.00000000000001739782	     -0.00000000000000454125	     -7.53013491787099550000	      6.66036493833873600000	     -1.01430422218549850000	     -9.82946192093497470000	    -20.38529313275169100000	      5.58984422265715870000	    101.74018062837023000000	     76.52777795131596900000	      0.00000000000000267279	     -0.00000000000000470666	    -22.95289383149662800000	    -35.63290143642466000000	     23.09690361351596600000	    104.24347154715174000000	     69.59943454909058900000	      0.00000000000000596034	     -0.00000000000000205308
      0.98700000000000010000	     -2.30925909847379880000	     -1.78075718951433900000	     -1.89548591626935830000	      0.77350023920019118000	      0.98809528989146644000	     -0.44816006995412572000	     10.01445715059962900000	      4.23140853983747260000	     -5.64401456098913190000	    -35.13702123665283500000	     14.19138825541642400000	      0.00000000000003457988	      0.00000000000003956783	     24.63731282615109200000	     -3.45637599881752240000	     -1.28545099719752280000	    -77.91826161344505400000	     -5.16077235109952160000	     -0.00000000000001759040	     -0.00000000000000439256	     -7.50023838248066350000	      6.58965256836896710000	     -0.89378840048744290000	     -9.74827783998609300000	    -20.35140569111051100000	      5.58699217068709690000	    101.86264598183686000000	     76.61625021462384700000	      0.00000000000000278987	     -0.00000000000000463801	    -23.11557647294323900000	    -35.72033785081387000000	     23.10336168311004800000	    104.34642273425732000000	     69.43161791435895200000	      0.00000000000000604056	     -0.00000000000000206110
      0.98800000000000010000	     -2.33747652158916890000	     -1.70985461796514390000	     -1.90340087859631500000	      0.77344554773358398000	      0.98836641202255859000	     -0.44812355147347283000	      9.85271702105620410000	      4.16616536596302200000	     -5.60633120907307170000	    -35.01303432221202900000	     14.10036856726073400000	      0.00000000000003497220	      0.00000000000004036607	     24.77672623939744800000	     -3.37218270011132490000	     -1.29823772760016840000	    -77.73126407658742200000	     -5.07357159186316230000	     -0.00000000000001778179	     -0.00000000000000423593	     -7.46894400423946530000	      6.51810769525856410000	     -0.77384025788050326000	     -9.66883503418559260000	    -20.31812176429120200000	      5.58411456180225850000	    101.98639170739537000000	     76.70781213431280300000	      0.00000000000000290461	     -0.00000000000000457026	    -23.27909526248127700000	    -35.80840222120730200000	     23.10892094383801900000	    104.45098626350608000000	     69.26587027924939800000	      0.00000000000000612059	     -0.00000000000000204779
      0.98900000000000010000	     -2.36623939023097710000	     -1.63835020728232150000	     -1.91100624771125900000	      0.77339508575918225000	      0.98864462249741858000	     -0.44808833383765706000	      9.69054242107929300000	      4.10020292405065150000	     -5.56806742380717970000	    -34.88728549240237700000	     14.00559084778490000000	      0.00000000000003533536	      0.00000000000004115365	     24.91466860161878600000	     -3.28796821786051160000	     -1.31197990234688590000	    -77.53950641539526600000	     -4.98833927303914670000	     -0.00000000000001797532	     -0.00000000000000405576	     -7.43630989792607180000	      6.44576305421193400000	     -0.65446583474276021000	     -9.59111682847755630000	    -20.28540901903317500000	      5.58121079418551600000	    102.11131239300049000000	     76.80232179213433600000	      0.00000000000000301853	     -0.00000000000000450340	    -23.44343515484918700000	    -35.89705410152720300000	     23.11359391102594800000	    104.55701469649109000000	     69.10234882855571900000	      0.00000000000000620128	     -0.00000000000000201385
